<svg id="my-svg" width="100%" xmlns="http://www.w3.org/2000/svg" xmlns:xlink="http://www.w3.org/1999/xlink" style="max-width: 2231.08px; background-color: transparent;" viewBox="-8 -8 2231.078125 841.875" role="graphics-document document" aria-roledescription="flowchart-v2"><style>#my-svg{font-family:"trebuchet ms",verdana,arial,sans-serif;font-size:16px;fill:#333;}#my-svg .error-icon{fill:#552222;}#my-svg .error-text{fill:#552222;stroke:#552222;}#my-svg .edge-thickness-normal{stroke-width:2px;}#my-svg .edge-thickness-thick{stroke-width:3.5px;}#my-svg .edge-pattern-solid{stroke-dasharray:0;}#my-svg .edge-pattern-dashed{stroke-dasharray:3;}#my-svg .edge-pattern-dotted{stroke-dasharray:2;}#my-svg .marker{fill:#333333;stroke:#333333;}#my-svg .marker.cross{stroke:#333333;}#my-svg svg{font-family:"trebuchet ms",verdana,arial,sans-serif;font-size:16px;}#my-svg .label{font-family:"trebuchet ms",verdana,arial,sans-serif;color:#333;}#my-svg .cluster-label text{fill:#333;}#my-svg .cluster-label span,#my-svg p{color:#333;}#my-svg .label text,#my-svg span,#my-svg p{fill:#333;color:#333;}#my-svg .node rect,#my-svg .node circle,#my-svg .node ellipse,#my-svg .node polygon,#my-svg .node path{fill:#ECECFF;stroke:#9370DB;stroke-width:1px;}#my-svg .flowchart-label text{text-anchor:middle;}#my-svg .node .katex path{fill:#000;stroke:#000;stroke-width:1px;}#my-svg .node .label{text-align:center;}#my-svg .node.clickable{cursor:pointer;}#my-svg .arrowheadPath{fill:#333333;}#my-svg .edgePath .path{stroke:#333333;stroke-width:2.0px;}#my-svg .flowchart-link{stroke:#333333;fill:none;}#my-svg .edgeLabel{background-color:#e8e8e8;text-align:center;}#my-svg .edgeLabel rect{opacity:0.5;background-color:#e8e8e8;fill:#e8e8e8;}#my-svg .labelBkg{background-color:rgba(232, 232, 232, 0.5);}#my-svg .cluster rect{fill:#ffffde;stroke:#aaaa33;stroke-width:1px;}#my-svg .cluster text{fill:#333;}#my-svg .cluster span,#my-svg p{color:#333;}#my-svg div.mermaidTooltip{position:absolute;text-align:center;max-width:200px;padding:2px;font-family:"trebuchet ms",verdana,arial,sans-serif;font-size:12px;background:hsl(80, 100%, 96.2745098039%);border:1px solid #aaaa33;border-radius:2px;pointer-events:none;z-index:100;}#my-svg .flowchartTitleText{text-anchor:middle;font-size:18px;fill:#333;}#my-svg :root{--mermaid-font-family:"trebuchet ms",verdana,arial,sans-serif;}</style><g><marker id="my-svg_flowchart-pointEnd" class="marker flowchart" viewBox="0 0 10 10" refX="6" refY="5" markerUnits="userSpaceOnUse" markerWidth="12" markerHeight="12" orient="auto"><path d="M 0 0 L 10 5 L 0 10 z" class="arrowMarkerPath" style="stroke-width: 1; stroke-dasharray: 1, 0;"/></marker><marker id="my-svg_flowchart-pointStart" class="marker flowchart" viewBox="0 0 10 10" refX="4.5" refY="5" markerUnits="userSpaceOnUse" markerWidth="12" markerHeight="12" orient="auto"><path d="M 0 5 L 10 10 L 10 0 z" class="arrowMarkerPath" style="stroke-width: 1; stroke-dasharray: 1, 0;"/></marker><marker id="my-svg_flowchart-circleEnd" class="marker flowchart" viewBox="0 0 10 10" refX="11" refY="5" markerUnits="userSpaceOnUse" markerWidth="11" markerHeight="11" orient="auto"><circle cx="5" cy="5" r="5" class="arrowMarkerPath" style="stroke-width: 1; stroke-dasharray: 1, 0;"/></marker><marker id="my-svg_flowchart-circleStart" class="marker flowchart" viewBox="0 0 10 10" refX="-1" refY="5" markerUnits="userSpaceOnUse" markerWidth="11" markerHeight="11" orient="auto"><circle cx="5" cy="5" r="5" class="arrowMarkerPath" style="stroke-width: 1; stroke-dasharray: 1, 0;"/></marker><marker id="my-svg_flowchart-crossEnd" class="marker cross flowchart" viewBox="0 0 11 11" refX="12" refY="5.2" markerUnits="userSpaceOnUse" markerWidth="11" markerHeight="11" orient="auto"><path d="M 1,1 l 9,9 M 10,1 l -9,9" class="arrowMarkerPath" style="stroke-width: 2; stroke-dasharray: 1, 0;"/></marker><marker id="my-svg_flowchart-crossStart" class="marker cross flowchart" viewBox="0 0 11 11" refX="-1" refY="5.2" markerUnits="userSpaceOnUse" markerWidth="11" markerHeight="11" orient="auto"><path d="M 1,1 l 9,9 M 10,1 l -9,9" class="arrowMarkerPath" style="stroke-width: 2; stroke-dasharray: 1, 0;"/></marker><g class="root"><g class="clusters"/><g class="edgePaths"><path d="M634.105,36L634.105,40.167C634.105,44.333,634.105,52.667,634.105,60.117C634.105,67.567,634.105,74.133,634.105,77.417L634.105,80.7" id="L-A-B-0" class="edge-thickness-normal edge-pattern-solid flowchart-link LS-A LE-B" style="fill:none;" marker-end="url(#my-svg_flowchart-pointEnd)"/><path d="M594.394,122L581.341,127.917C568.287,133.833,542.181,145.667,535,156.907C527.819,168.147,539.563,178.794,545.435,184.117L551.307,189.44" id="L-B-C-0" class="edge-thickness-normal edge-pattern-solid flowchart-link LS-B LE-C" style="fill:none;" marker-end="url(#my-svg_flowchart-pointEnd)"/><path d="M594.946,193L601.472,187.083C607.999,181.167,621.052,169.333,627.579,158.383C634.105,147.433,634.105,137.367,634.105,132.333L634.105,127.3" id="L-C-B-0" class="edge-thickness-normal edge-pattern-solid flowchart-link LS-C LE-B" style="fill:none;" marker-end="url(#my-svg_flowchart-pointEnd)"/><path d="M681.605,120.394L699.523,126.579C717.441,132.763,753.277,145.131,771.195,156.349C789.113,167.567,789.113,177.633,789.113,182.667L789.113,187.7" id="L-B-D-0" class="edge-thickness-normal edge-pattern-solid flowchart-link LS-B LE-D" style="fill:none;" marker-end="url(#my-svg_flowchart-pointEnd)"/><path d="M741.613,227.849L729.326,232.207C717.038,236.566,692.462,245.283,680.24,253.008C668.019,260.734,668.151,267.467,668.217,270.834L668.283,274.201" id="L-D-E-0" class="edge-thickness-normal edge-pattern-solid flowchart-link LS-D LE-E" style="fill:none;" marker-end="url(#my-svg_flowchart-pointEnd)"/><path d="M617.811,349.799L535.175,365.812C452.54,381.824,287.27,413.85,204.635,436.646C122,459.442,122,473.008,122,479.792L122,486.575" id="L-E-F1-0" class="edge-thickness-normal edge-pattern-solid flowchart-link LS-E LE-F1" style="fill:none;" marker-end="url(#my-svg_flowchart-pointEnd)"/><path d="M103.438,527.875L95.531,535.542C87.625,543.208,71.813,558.542,63.906,576.492C56,594.442,56,615.008,56,625.292L56,635.575" id="L-F1-G1-0" class="edge-thickness-normal edge-pattern-solid flowchart-link LS-F1 LE-G1" style="fill:none;" marker-end="url(#my-svg_flowchart-pointEnd)"/><path d="M148.016,527.875L159.096,535.542C170.177,543.208,192.339,558.542,208.586,578.313C224.834,598.084,235.169,622.292,240.336,634.396L245.503,646.501" id="L-F1-G2-0" class="edge-thickness-normal edge-pattern-solid flowchart-link LS-F1 LE-G2" style="fill:none;" marker-end="url(#my-svg_flowchart-pointEnd)"/><path d="M625.617,357.605L589.719,372.317C553.82,387.029,482.023,416.452,446.125,437.947C410.227,459.442,410.227,473.008,410.227,479.792L410.227,486.575" id="L-E-F2-0" class="edge-thickness-normal edge-pattern-solid flowchart-link LS-E LE-F2" style="fill:none;" marker-end="url(#my-svg_flowchart-pointEnd)"/><path d="M410.227,527.875L410.227,535.542C410.227,543.208,410.227,558.542,416.11,576.606C421.993,594.671,433.76,615.466,439.643,625.864L445.526,636.262" id="L-F2-H1-0" class="edge-thickness-normal edge-pattern-solid flowchart-link LS-F2 LE-H1" style="fill:none;" marker-end="url(#my-svg_flowchart-pointEnd)"/><path d="M465.727,526.693L491.677,534.557C517.628,542.42,569.529,558.148,604.513,576.508C639.498,594.869,657.566,615.864,666.6,626.361L675.635,636.858" id="L-F2-H2-0" class="edge-thickness-normal edge-pattern-solid flowchart-link LS-F2 LE-H2" style="fill:none;" marker-end="url(#my-svg_flowchart-pointEnd)"/><path d="M708.606,360.156L737.107,374.443C765.608,388.729,822.611,417.302,851.112,438.372C879.613,459.442,879.613,473.008,879.613,479.792L879.613,486.575" id="L-E-F3-0" class="edge-thickness-normal edge-pattern-solid flowchart-link LS-E LE-F3" style="fill:none;" marker-end="url(#my-svg_flowchart-pointEnd)"/><path d="M879.613,527.875L879.613,535.542C879.613,543.208,879.613,558.542,885.889,574.909C892.164,591.276,904.715,608.676,910.99,617.376L917.266,626.077" id="L-F3-I1-0" class="edge-thickness-normal edge-pattern-solid flowchart-link LS-F3 LE-I1" style="fill:none;" marker-end="url(#my-svg_flowchart-pointEnd)"/><path d="M935.113,526.216L962.092,534.159C989.07,542.102,1043.027,557.989,1077.994,576.396C1112.96,594.804,1128.936,615.733,1136.924,626.198L1144.912,636.662" id="L-F3-I2-0" class="edge-thickness-normal edge-pattern-solid flowchart-link LS-F3 LE-I2" style="fill:none;" marker-end="url(#my-svg_flowchart-pointEnd)"/><path d="M723.547,345.215L899.693,361.991C1075.839,378.768,1428.13,412.322,1604.276,435.882C1780.422,459.442,1780.422,473.008,1780.422,479.792L1780.422,486.575" id="L-E-F4-0" class="edge-thickness-normal edge-pattern-solid flowchart-link LS-E LE-F4" style="fill:none;" marker-end="url(#my-svg_flowchart-pointEnd)"/><path d="M1724.922,517.816L1659.619,527.159C1594.316,536.502,1463.711,555.189,1405.712,573.271C1347.714,591.353,1362.322,608.831,1369.627,617.57L1376.931,626.308" id="L-F4-J1-0" class="edge-thickness-normal edge-pattern-solid flowchart-link LS-F4 LE-J1" style="fill:none;" marker-end="url(#my-svg_flowchart-pointEnd)"/><path d="M1748.102,527.875L1734.337,535.542C1720.571,543.208,1693.039,558.542,1679.274,572.992C1665.508,587.442,1665.508,601.008,1665.508,607.792L1665.508,614.575" id="L-F4-J2-0" class="edge-thickness-normal edge-pattern-solid flowchart-link LS-F4 LE-J2" style="fill:none;" marker-end="url(#my-svg_flowchart-pointEnd)"/><path d="M1812.741,527.875L1826.507,535.542C1840.273,543.208,1867.804,558.542,1881.57,574.742C1895.336,590.942,1895.336,608.008,1895.336,616.542L1895.336,625.075" id="L-F4-J3-0" class="edge-thickness-normal edge-pattern-solid flowchart-link LS-F4 LE-J3" style="fill:none;" marker-end="url(#my-svg_flowchart-pointEnd)"/><path d="M1835.922,520.178L1884.129,529.128C1932.336,538.077,2028.75,555.976,2076.957,575.209C2125.164,594.442,2125.164,615.008,2125.164,625.292L2125.164,635.575" id="L-F4-J4-0" class="edge-thickness-normal edge-pattern-solid flowchart-link LS-F4 LE-J4" style="fill:none;" marker-end="url(#my-svg_flowchart-pointEnd)"/><path d="M56,718.875L56,726.542C56,734.208,56,749.542,337.854,764.237C619.708,778.932,1183.416,792.988,1465.27,800.016L1747.124,807.045" id="L-G1-K-0" class="edge-thickness-normal edge-pattern-solid flowchart-link LS-G1 LE-K" style="fill:none;" marker-end="url(#my-svg_flowchart-pointEnd)"/><path d="M275.876,651.375L283.184,638.458C290.493,625.542,305.11,599.708,312.418,576.125C319.727,552.542,319.727,531.208,319.727,509.875C319.727,488.542,319.727,467.208,319.727,438.802C319.727,410.396,319.727,374.917,319.727,342.938C319.727,310.958,319.727,282.479,389.161,261.879C458.596,241.278,597.466,228.557,666.901,222.196L736.335,215.835" id="L-G2-D-0" class="edge-thickness-normal edge-pattern-solid flowchart-link LS-G2 LE-D" style="fill:none;" marker-end="url(#my-svg_flowchart-pointEnd)"/><path d="M503.768,640.875L513.378,629.708C522.988,618.542,542.209,596.208,551.819,574.375C561.43,552.542,561.43,531.208,561.43,509.875C561.43,488.542,561.43,467.208,561.43,438.802C561.43,410.396,561.43,374.917,561.43,342.938C561.43,310.958,561.43,282.479,590.592,262.732C619.755,242.985,678.08,231.97,707.243,226.462L736.405,220.954" id="L-H1-D-0" class="edge-thickness-normal edge-pattern-solid flowchart-link LS-H1 LE-D" style="fill:none;" marker-end="url(#my-svg_flowchart-pointEnd)"/><path d="M740.787,640.875L748.841,629.708C756.896,618.542,773.004,596.208,781.059,574.375C789.113,552.542,789.113,531.208,789.113,509.875C789.113,488.542,789.113,467.208,789.113,438.802C789.113,410.396,789.113,374.917,789.113,342.938C789.113,310.958,789.113,282.479,789.113,264.956C789.113,247.433,789.113,240.867,789.113,237.583L789.113,234.3" id="L-H2-D-0" class="edge-thickness-normal edge-pattern-solid flowchart-link LS-H2 LE-D" style="fill:none;" marker-end="url(#my-svg_flowchart-pointEnd)"/><path d="M993.856,630.375L1001.044,620.958C1008.232,611.542,1022.608,592.708,1029.796,572.625C1036.984,552.542,1036.984,531.208,1036.984,509.875C1036.984,488.542,1036.984,467.208,1036.984,438.802C1036.984,410.396,1036.984,374.917,1036.984,342.938C1036.984,310.958,1036.984,282.479,1004.46,262.597C971.935,242.715,906.885,231.431,874.36,225.788L841.835,220.146" id="L-I1-D-0" class="edge-thickness-normal edge-pattern-solid flowchart-link LS-I1 LE-D" style="fill:none;" marker-end="url(#my-svg_flowchart-pointEnd)"/><path d="M1210.496,640.875L1219.829,629.708C1229.162,618.542,1247.829,596.208,1257.163,574.375C1266.496,552.542,1266.496,531.208,1266.496,509.875C1266.496,488.542,1266.496,467.208,1266.496,438.802C1266.496,410.396,1266.496,374.917,1266.496,342.938C1266.496,310.958,1266.496,282.479,1195.729,261.865C1124.961,241.251,983.427,228.503,912.659,222.128L841.892,215.754" id="L-I2-D-0" class="edge-thickness-normal edge-pattern-solid flowchart-link LS-I2 LE-D" style="fill:none;" marker-end="url(#my-svg_flowchart-pointEnd)"/><path d="M1454.209,630.375L1460.393,620.958C1466.577,611.542,1478.945,592.708,1485.129,572.625C1491.313,552.542,1491.313,531.208,1491.313,509.875C1491.313,488.542,1491.313,467.208,1491.313,438.802C1491.313,410.396,1491.313,374.917,1491.313,342.938C1491.313,310.958,1491.313,282.479,1383.078,261.612C1274.843,240.744,1058.373,227.488,950.138,220.861L841.903,214.233" id="L-J1-D-0" class="edge-thickness-normal edge-pattern-solid flowchart-link LS-J1 LE-D" style="fill:none;" marker-end="url(#my-svg_flowchart-pointEnd)"/><path d="M1665.508,739.875L1665.508,744.042C1665.508,748.208,1665.508,756.542,1679.166,765.819C1692.825,775.097,1720.141,785.318,1733.8,790.429L1747.458,795.54" id="L-J2-K-0" class="edge-thickness-normal edge-pattern-solid flowchart-link LS-J2 LE-K" style="fill:none;" marker-end="url(#my-svg_flowchart-pointEnd)"/><path d="M1895.336,729.375L1895.336,735.292C1895.336,741.208,1895.336,753.042,1881.678,764.069C1868.019,775.097,1840.702,785.318,1827.044,790.429L1813.386,795.54" id="L-J3-K-0" class="edge-thickness-normal edge-pattern-solid flowchart-link LS-J3 LE-K" style="fill:none;" marker-end="url(#my-svg_flowchart-pointEnd)"/><path d="M2125.164,718.875L2125.164,726.542C2125.164,734.208,2125.164,749.542,2073.25,763.684C2021.336,777.826,1917.509,790.776,1865.595,797.251L1813.681,803.727" id="L-J4-K-0" class="edge-thickness-normal edge-pattern-solid flowchart-link LS-J4 LE-K" style="fill:none;" marker-end="url(#my-svg_flowchart-pointEnd)"/></g><g class="edgeLabels"><g class="edgeLabel"><g class="label" transform="translate(0, 0)"><foreignObject width="0" height="0"><div xmlns="http://www.w3.org/1999/xhtml" style="display: inline-block; white-space: nowrap;"><span class="edgeLabel"></span></div></foreignObject></g></g><g class="edgeLabel" transform="translate(516.07421875, 157.5)"><g class="label" transform="translate(-33.015625, -10.5)"><foreignObject width="66.03125" height="21"><div xmlns="http://www.w3.org/1999/xhtml" style="display: inline-block; white-space: nowrap;"><span class="edgeLabel">点 + 新建</span></div></foreignObject></g></g><g class="edgeLabel" transform="translate(634.10546875, 157.5)"><g class="label" transform="translate(-65.015625, -10.5)"><foreignObject width="130.03125" height="21"><div xmlns="http://www.w3.org/1999/xhtml" style="display: inline-block; white-space: nowrap;"><span class="edgeLabel">填5个字段 → 提交</span></div></foreignObject></g></g><g class="edgeLabel" transform="translate(789.11328125, 157.5)"><g class="label" transform="translate(-40, -10.5)"><foreignObject width="80" height="21"><div xmlns="http://www.w3.org/1999/xhtml" style="display: inline-block; white-space: nowrap;"><span class="edgeLabel">点工单卡片</span></div></foreignObject></g></g><g class="edgeLabel"><g class="label" transform="translate(0, 0)"><foreignObject width="0" height="0"><div xmlns="http://www.w3.org/1999/xhtml" style="display: inline-block; white-space: nowrap;"><span class="edgeLabel"></span></div></foreignObject></g></g><g class="edgeLabel" transform="translate(122, 445.875)"><g class="label" transform="translate(-24, -10.5)"><foreignObject width="48" height="21"><div xmlns="http://www.w3.org/1999/xhtml" style="display: inline-block; white-space: nowrap;"><span class="edgeLabel">待响应</span></div></foreignObject></g></g><g class="edgeLabel" transform="translate(56, 573.875)"><g class="label" transform="translate(-56, -10.5)"><foreignObject width="112" height="21"><div xmlns="http://www.w3.org/1999/xhtml" style="display: inline-block; white-space: nowrap;"><span class="edgeLabel">点「指导放归」</span></div></foreignObject></g></g><g class="edgeLabel" transform="translate(214.5, 573.875)"><g class="label" transform="translate(-56, -10.5)"><foreignObject width="112" height="21"><div xmlns="http://www.w3.org/1999/xhtml" style="display: inline-block; white-space: nowrap;"><span class="edgeLabel">点「上门接收」</span></div></foreignObject></g></g><g class="edgeLabel" transform="translate(410.2265625, 445.875)"><g class="label" transform="translate(-24, -10.5)"><foreignObject width="48" height="21"><div xmlns="http://www.w3.org/1999/xhtml" style="display: inline-block; white-space: nowrap;"><span class="edgeLabel">处理中</span></div></foreignObject></g></g><g class="edgeLabel" transform="translate(410.2265625, 573.875)"><g class="label" transform="translate(-40, -10.5)"><foreignObject width="80" height="21"><div xmlns="http://www.w3.org/1999/xhtml" style="display: inline-block; white-space: nowrap;"><span class="edgeLabel">点「初检」</span></div></foreignObject></g></g><g class="edgeLabel" transform="translate(621.4296875, 573.875)"><g class="label" transform="translate(-40, -10.5)"><foreignObject width="80" height="21"><div xmlns="http://www.w3.org/1999/xhtml" style="display: inline-block; white-space: nowrap;"><span class="edgeLabel">点「移交」</span></div></foreignObject></g></g><g class="edgeLabel" transform="translate(879.61328125, 445.875)"><g class="label" transform="translate(-48, -21)"><foreignObject width="96" height="42"><div xmlns="http://www.w3.org/1999/xhtml" style="display: inline-block; white-space: nowrap;"><span class="edgeLabel">待接收<br />仅接收方可见</span></div></foreignObject></g></g><g class="edgeLabel" transform="translate(879.61328125, 573.875)"><g class="label" transform="translate(-56, -10.5)"><foreignObject width="112" height="21"><div xmlns="http://www.w3.org/1999/xhtml" style="display: inline-block; white-space: nowrap;"><span class="edgeLabel">点「确认接收」</span></div></foreignObject></g></g><g class="edgeLabel" transform="translate(1096.984375, 573.875)"><g class="label" transform="translate(-40, -10.5)"><foreignObject width="80" height="21"><div xmlns="http://www.w3.org/1999/xhtml" style="display: inline-block; white-space: nowrap;"><span class="edgeLabel">点「退回」</span></div></foreignObject></g></g><g class="edgeLabel" transform="translate(1780.421875, 445.875)"><g class="label" transform="translate(-24, -10.5)"><foreignObject width="48" height="21"><div xmlns="http://www.w3.org/1999/xhtml" style="display: inline-block; white-space: nowrap;"><span class="edgeLabel">治疗中</span></div></foreignObject></g></g><g class="edgeLabel" transform="translate(1333.10546875, 573.875)"><g class="label" transform="translate(-46.609375, -10.5)"><foreignObject width="93.21875" height="21"><div xmlns="http://www.w3.org/1999/xhtml" style="display: inline-block; white-space: nowrap;"><span class="edgeLabel">点「+ 记录」</span></div></foreignObject></g></g><g class="edgeLabel" transform="translate(1665.5078125, 573.875)"><g class="label" transform="translate(-84.5859375, -21)"><foreignObject width="169.171875" height="42"><div xmlns="http://www.w3.org/1999/xhtml" style="display: inline-block; white-space: nowrap;"><span class="edgeLabel">点「放归」<br />检疫≥30天且本土才出现</span></div></foreignObject></g></g><g class="edgeLabel" transform="translate(1895.3359375, 573.875)"><g class="label" transform="translate(-64, -21)"><foreignObject width="128" height="42"><div xmlns="http://www.w3.org/1999/xhtml" style="display: inline-block; white-space: nowrap;"><span class="edgeLabel">点「无害化」<br />动物死亡后才出现</span></div></foreignObject></g></g><g class="edgeLabel" transform="translate(2125.1640625, 573.875)"><g class="label" transform="translate(-64, -21)"><foreignObject width="128" height="42"><div xmlns="http://www.w3.org/1999/xhtml" style="display: inline-block; white-space: nowrap;"><span class="edgeLabel">点「申请调配」<br />不适宜放归时出现</span></div></foreignObject></g></g><g class="edgeLabel"><g class="label" transform="translate(0, 0)"><foreignObject width="0" height="0"><div xmlns="http://www.w3.org/1999/xhtml" style="display: inline-block; white-space: nowrap;"><span class="edgeLabel"></span></div></foreignObject></g></g><g class="edgeLabel"><g class="label" transform="translate(0, 0)"><foreignObject width="0" height="0"><div xmlns="http://www.w3.org/1999/xhtml" style="display: inline-block; white-space: nowrap;"><span class="edgeLabel"></span></div></foreignObject></g></g><g class="edgeLabel"><g class="label" transform="translate(0, 0)"><foreignObject width="0" height="0"><div xmlns="http://www.w3.org/1999/xhtml" style="display: inline-block; white-space: nowrap;"><span class="edgeLabel"></span></div></foreignObject></g></g><g class="edgeLabel"><g class="label" transform="translate(0, 0)"><foreignObject width="0" height="0"><div xmlns="http://www.w3.org/1999/xhtml" style="display: inline-block; white-space: nowrap;"><span class="edgeLabel"></span></div></foreignObject></g></g><g class="edgeLabel"><g class="label" transform="translate(0, 0)"><foreignObject width="0" height="0"><div xmlns="http://www.w3.org/1999/xhtml" style="display: inline-block; white-space: nowrap;"><span class="edgeLabel"></span></div></foreignObject></g></g><g class="edgeLabel"><g class="label" transform="translate(0, 0)"><foreignObject width="0" height="0"><div xmlns="http://www.w3.org/1999/xhtml" style="display: inline-block; white-space: nowrap;"><span class="edgeLabel"></span></div></foreignObject></g></g><g class="edgeLabel"><g class="label" transform="translate(0, 0)"><foreignObject width="0" height="0"><div xmlns="http://www.w3.org/1999/xhtml" style="display: inline-block; white-space: nowrap;"><span class="edgeLabel"></span></div></foreignObject></g></g><g class="edgeLabel"><g class="label" transform="translate(0, 0)"><foreignObject width="0" height="0"><div xmlns="http://www.w3.org/1999/xhtml" style="display: inline-block; white-space: nowrap;"><span class="edgeLabel"></span></div></foreignObject></g></g><g class="edgeLabel"><g class="label" transform="translate(0, 0)"><foreignObject width="0" height="0"><div xmlns="http://www.w3.org/1999/xhtml" style="display: inline-block; white-space: nowrap;"><span class="edgeLabel"></span></div></foreignObject></g></g><g class="edgeLabel"><g class="label" transform="translate(0, 0)"><foreignObject width="0" height="0"><div xmlns="http://www.w3.org/1999/xhtml" style="display: inline-block; white-space: nowrap;"><span class="edgeLabel"></span></div></foreignObject></g></g></g><g class="nodes"><g class="node default default flowchart-label" id="flowchart-A-0" data-node="true" data-id="A" transform="translate(634.10546875, 18)"><rect style="" rx="18" ry="18" x="-28" y="-18" width="56" height="36"/><g class="label" style="" transform="translate(-16, -10.5)"><rect/><foreignObject width="32" height="21"><div xmlns="http://www.w3.org/1999/xhtml" style="display: inline-block; white-space: nowrap;"><span class="nodeLabel">开始</span></div></foreignObject></g></g><g class="node default default flowchart-label" id="flowchart-B-1" data-node="true" data-id="B" transform="translate(634.10546875, 104)"><rect class="basic label-container" style="" rx="0" ry="0" x="-47.5" y="-18" width="95" height="36"/><g class="label" style="" transform="translate(-40, -10.5)"><rect/><foreignObject width="80" height="21"><div xmlns="http://www.w3.org/1999/xhtml" style="display: inline-block; white-space: nowrap;"><span class="nodeLabel">工单列表页</span></div></foreignObject></g></g><g class="node default default flowchart-label" id="flowchart-C-3" data-node="true" data-id="C" transform="translate(575.08984375, 211)"><rect class="basic label-container" style="" rx="0" ry="0" x="-87.5" y="-18" width="175" height="36"/><g class="label" style="" transform="translate(-80, -10.5)"><rect/><foreignObject width="160" height="21"><div xmlns="http://www.w3.org/1999/xhtml" style="display: inline-block; white-space: nowrap;"><span class="nodeLabel">弹出新建工单底部抽屉</span></div></foreignObject></g></g><g class="node default default flowchart-label" id="flowchart-D-7" data-node="true" data-id="D" transform="translate(789.11328125, 211)"><rect class="basic label-container" style="" rx="0" ry="0" x="-47.5" y="-18" width="95" height="36"/><g class="label" style="" transform="translate(-40, -10.5)"><rect/><foreignObject width="80" height="21"><div xmlns="http://www.w3.org/1999/xhtml" style="display: inline-block; white-space: nowrap;"><span class="nodeLabel">工单详情页</span></div></foreignObject></g></g><g class="node default default flowchart-label" id="flowchart-E-9" data-node="true" data-id="E" transform="translate(667.88671875, 339.4375)"><polygon points="60.4375,0 120.875,-60.4375 60.4375,-120.875 0,-60.4375" class="label-container" transform="translate(-60.4375,60.4375)" style=""/><g class="label" style="" transform="translate(-34.9375, -10.5)"><rect/><foreignObject width="69.875" height="21"><div xmlns="http://www.w3.org/1999/xhtml" style="display: inline-block; white-space: nowrap;"><span class="nodeLabel">当前状态?</span></div></foreignObject></g></g><g class="node default default flowchart-label" id="flowchart-F1-11" data-node="true" data-id="F1" transform="translate(122, 509.875)"><rect class="basic label-container" style="" rx="0" ry="0" x="-55.5" y="-18" width="111" height="36"/><g class="label" style="" transform="translate(-48, -10.5)"><rect/><foreignObject width="96" height="21"><div xmlns="http://www.w3.org/1999/xhtml" style="display: inline-block; white-space: nowrap;"><span class="nodeLabel">底部两个按钮</span></div></foreignObject></g></g><g class="node default default flowchart-label" id="flowchart-G1-13" data-node="true" data-id="G1" transform="translate(56, 679.875)"><rect class="basic label-container" style="" rx="0" ry="0" x="-55.5" y="-39" width="111" height="78"/><g class="label" style="" transform="translate(-48, -31.5)"><rect/><foreignObject width="96" height="63"><div xmlns="http://www.w3.org/1999/xhtml" style="display: inline-block; white-space: nowrap;"><span class="nodeLabel">弹出底部表单<br />填指导意见<br />→ 提交结案</span></div></foreignObject></g></g><g class="node default default flowchart-label" id="flowchart-G2-15" data-node="true" data-id="G2" transform="translate(259.75, 679.875)"><rect class="basic label-container" style="" rx="0" ry="0" x="-79.5" y="-28.5" width="159" height="57"/><g class="label" style="" transform="translate(-72, -21)"><rect/><foreignObject width="144" height="42"><div xmlns="http://www.w3.org/1999/xhtml" style="display: inline-block; white-space: nowrap;"><span class="nodeLabel">直接变为「处理中」<br />开始24h倒计时</span></div></foreignObject></g></g><g class="node default default flowchart-label" id="flowchart-F2-17" data-node="true" data-id="F2" transform="translate(410.2265625, 509.875)"><rect class="basic label-container" style="" rx="0" ry="0" x="-55.5" y="-18" width="111" height="36"/><g class="label" style="" transform="translate(-48, -10.5)"><rect/><foreignObject width="96" height="21"><div xmlns="http://www.w3.org/1999/xhtml" style="display: inline-block; white-space: nowrap;"><span class="nodeLabel">底部两个按钮</span></div></foreignObject></g></g><g class="node default default flowchart-label" id="flowchart-H1-19" data-node="true" data-id="H1" transform="translate(470.203125, 679.875)"><rect class="basic label-container" style="" rx="0" ry="0" x="-80.953125" y="-39" width="161.90625" height="78"/><g class="label" style="" transform="translate(-73.453125, -31.5)"><rect/><foreignObject width="146.90625" height="63"><div xmlns="http://www.w3.org/1999/xhtml" style="display: inline-block; white-space: nowrap;"><span class="nodeLabel">弹出底部表单<br />多选checkbox填初检<br />→ 追加到时间线</span></div></foreignObject></g></g><g class="node default default flowchart-label" id="flowchart-H2-21" data-node="true" data-id="H2" transform="translate(712.65625, 679.875)"><rect class="basic label-container" style="" rx="0" ry="0" x="-111.5" y="-39" width="223" height="78"/><g class="label" style="" transform="translate(-104, -31.5)"><rect/><foreignObject width="208" height="63"><div xmlns="http://www.w3.org/1999/xhtml" style="display: inline-block; white-space: nowrap;"><span class="nodeLabel">弹出底部表单<br />选接收机构（系统自动推荐）<br />→ 工单变「待接收」</span></div></foreignObject></g></g><g class="node default default flowchart-label" id="flowchart-F3-23" data-node="true" data-id="F3" transform="translate(879.61328125, 509.875)"><rect class="basic label-container" style="" rx="0" ry="0" x="-55.5" y="-18" width="111" height="36"/><g class="label" style="" transform="translate(-48, -10.5)"><rect/><foreignObject width="96" height="21"><div xmlns="http://www.w3.org/1999/xhtml" style="display: inline-block; white-space: nowrap;"><span class="nodeLabel">底部两个按钮</span></div></foreignObject></g></g><g class="node default default flowchart-label" id="flowchart-I1-25" data-node="true" data-id="I1" transform="translate(956.0703125, 679.875)"><rect class="basic label-container" style="" rx="0" ry="0" x="-81.9140625" y="-49.5" width="163.828125" height="99"/><g class="label" style="" transform="translate(-74.4140625, -42)"><rect/><foreignObject width="148.828125" height="84"><div xmlns="http://www.w3.org/1999/xhtml" style="display: inline-block; white-space: nowrap;"><span class="nodeLabel">弹出底部表单<br />填笼舍号<br />→ 工单变「治疗中」<br />自动生成接收证明</span></div></foreignObject></g></g><g class="node default default flowchart-label" id="flowchart-I2-27" data-node="true" data-id="I2" transform="translate(1177.8984375, 679.875)"><rect class="basic label-container" style="" rx="0" ry="0" x="-89.9140625" y="-39" width="179.828125" height="78"/><g class="label" style="" transform="translate(-82.4140625, -31.5)"><rect/><foreignObject width="164.828125" height="63"><div xmlns="http://www.w3.org/1999/xhtml" style="display: inline-block; white-space: nowrap;"><span class="nodeLabel">弹出底部表单<br />填退回原因<br />→ 工单回退「处理中」</span></div></foreignObject></g></g><g class="node default default flowchart-label" id="flowchart-F4-29" data-node="true" data-id="F4" transform="translate(1780.421875, 509.875)"><rect class="basic label-container" style="" rx="0" ry="0" x="-55.5" y="-18" width="111" height="36"/><g class="label" style="" transform="translate(-48, -10.5)"><rect/><foreignObject width="96" height="21"><div xmlns="http://www.w3.org/1999/xhtml" style="display: inline-block; white-space: nowrap;"><span class="nodeLabel">底部一排按钮</span></div></foreignObject></g></g><g class="node default default flowchart-label" id="flowchart-J1-31" data-node="true" data-id="J1" transform="translate(1421.703125, 679.875)"><rect class="basic label-container" style="" rx="0" ry="0" x="-103.890625" y="-49.5" width="207.78125" height="99"/><g class="label" style="" transform="translate(-96.390625, -42)"><rect/><foreignObject width="192.78125" height="84"><div xmlns="http://www.w3.org/1999/xhtml" style="display: inline-block; white-space: nowrap;"><span class="nodeLabel">弹出底部表单<br />选类型（诊断/护理/体重）<br />填内容<br />→ 追加到时间线</span></div></foreignObject></g></g><g class="node default default flowchart-label" id="flowchart-J2-33" data-node="true" data-id="J2" transform="translate(1665.5078125, 679.875)"><rect class="basic label-container" style="" rx="0" ry="0" x="-89.9140625" y="-60" width="179.828125" height="120"/><g class="label" style="" transform="translate(-82.4140625, -52.5)"><rect/><foreignObject width="164.828125" height="105"><div xmlns="http://www.w3.org/1999/xhtml" style="display: inline-block; white-space: nowrap;"><span class="nodeLabel">弹出底部表单<br />预校验清单自动打勾<br />填在场人员≥2人<br />上传视频+照片+文字<br />→ 提交变为「已放归」</span></div></foreignObject></g></g><g class="node default default flowchart-label" id="flowchart-J3-35" data-node="true" data-id="J3" transform="translate(1895.3359375, 679.875)"><rect class="basic label-container" style="" rx="0" ry="0" x="-89.9140625" y="-49.5" width="179.828125" height="99"/><g class="label" style="" transform="translate(-82.4140625, -42)"><rect/><foreignObject width="164.828125" height="84"><div xmlns="http://www.w3.org/1999/xhtml" style="display: inline-block; white-space: nowrap;"><span class="nodeLabel">弹出底部表单<br />填检疫结果+处理方式<br />≥2人签字+附件<br />→ 提交变为「已处置」</span></div></foreignObject></g></g><g class="node default default flowchart-label" id="flowchart-J4-37" data-node="true" data-id="J4" transform="translate(2125.1640625, 679.875)"><rect class="basic label-container" style="" rx="0" ry="0" x="-89.9140625" y="-39" width="179.828125" height="78"/><g class="label" style="" transform="translate(-82.4140625, -31.5)"><rect/><foreignObject width="164.828125" height="63"><div xmlns="http://www.w3.org/1999/xhtml" style="display: inline-block; white-space: nowrap;"><span class="nodeLabel">弹出底部表单<br />填不适宜放归原因<br />→ 提交变为「已调配」</span></div></foreignObject></g></g><g class="node default default flowchart-label" id="flowchart-K-39" data-node="true" data-id="K" transform="translate(1780.421875, 807.875)"><rect style="" rx="18" ry="18" x="-28" y="-18" width="56" height="36"/><g class="label" style="" transform="translate(-16, -10.5)"><rect/><foreignObject width="32" height="21"><div xmlns="http://www.w3.org/1999/xhtml" style="display: inline-block; white-space: nowrap;"><span class="nodeLabel">结束</span></div></foreignObject></g></g></g></g></g></svg>