<svg id="my-svg" width="100%" xmlns="http://www.w3.org/2000/svg" xmlns:xlink="http://www.w3.org/1999/xlink" style="max-width: 837.312px; background-color: transparent;" viewBox="-8 -8 837.3125 671" role="graphics-document document" aria-roledescription="flowchart-v2"><style>#my-svg{font-family:"trebuchet ms",verdana,arial,sans-serif;font-size:16px;fill:#333;}#my-svg .error-icon{fill:#552222;}#my-svg .error-text{fill:#552222;stroke:#552222;}#my-svg .edge-thickness-normal{stroke-width:2px;}#my-svg .edge-thickness-thick{stroke-width:3.5px;}#my-svg .edge-pattern-solid{stroke-dasharray:0;}#my-svg .edge-pattern-dashed{stroke-dasharray:3;}#my-svg .edge-pattern-dotted{stroke-dasharray:2;}#my-svg .marker{fill:#333333;stroke:#333333;}#my-svg .marker.cross{stroke:#333333;}#my-svg svg{font-family:"trebuchet ms",verdana,arial,sans-serif;font-size:16px;}#my-svg .label{font-family:"trebuchet ms",verdana,arial,sans-serif;color:#333;}#my-svg .cluster-label text{fill:#333;}#my-svg .cluster-label span,#my-svg p{color:#333;}#my-svg .label text,#my-svg span,#my-svg p{fill:#333;color:#333;}#my-svg .node rect,#my-svg .node circle,#my-svg .node ellipse,#my-svg .node polygon,#my-svg .node path{fill:#ECECFF;stroke:#9370DB;stroke-width:1px;}#my-svg .flowchart-label text{text-anchor:middle;}#my-svg .node .katex path{fill:#000;stroke:#000;stroke-width:1px;}#my-svg .node .label{text-align:center;}#my-svg .node.clickable{cursor:pointer;}#my-svg .arrowheadPath{fill:#333333;}#my-svg .edgePath .path{stroke:#333333;stroke-width:2.0px;}#my-svg .flowchart-link{stroke:#333333;fill:none;}#my-svg .edgeLabel{background-color:#e8e8e8;text-align:center;}#my-svg .edgeLabel rect{opacity:0.5;background-color:#e8e8e8;fill:#e8e8e8;}#my-svg .labelBkg{background-color:rgba(232, 232, 232, 0.5);}#my-svg .cluster rect{fill:#ffffde;stroke:#aaaa33;stroke-width:1px;}#my-svg .cluster text{fill:#333;}#my-svg .cluster span,#my-svg p{color:#333;}#my-svg div.mermaidTooltip{position:absolute;text-align:center;max-width:200px;padding:2px;font-family:"trebuchet ms",verdana,arial,sans-serif;font-size:12px;background:hsl(80, 100%, 96.2745098039%);border:1px solid #aaaa33;border-radius:2px;pointer-events:none;z-index:100;}#my-svg .flowchartTitleText{text-anchor:middle;font-size:18px;fill:#333;}#my-svg :root{--mermaid-font-family:"trebuchet ms",verdana,arial,sans-serif;}</style><g><marker id="my-svg_flowchart-pointEnd" class="marker flowchart" viewBox="0 0 10 10" refX="6" refY="5" markerUnits="userSpaceOnUse" markerWidth="12" markerHeight="12" orient="auto"><path d="M 0 0 L 10 5 L 0 10 z" class="arrowMarkerPath" style="stroke-width: 1; stroke-dasharray: 1, 0;"/></marker><marker id="my-svg_flowchart-pointStart" class="marker flowchart" viewBox="0 0 10 10" refX="4.5" refY="5" markerUnits="userSpaceOnUse" markerWidth="12" markerHeight="12" orient="auto"><path d="M 0 5 L 10 10 L 10 0 z" class="arrowMarkerPath" style="stroke-width: 1; stroke-dasharray: 1, 0;"/></marker><marker id="my-svg_flowchart-circleEnd" class="marker flowchart" viewBox="0 0 10 10" refX="11" refY="5" markerUnits="userSpaceOnUse" markerWidth="11" markerHeight="11" orient="auto"><circle cx="5" cy="5" r="5" class="arrowMarkerPath" style="stroke-width: 1; stroke-dasharray: 1, 0;"/></marker><marker id="my-svg_flowchart-circleStart" class="marker flowchart" viewBox="0 0 10 10" refX="-1" refY="5" markerUnits="userSpaceOnUse" markerWidth="11" markerHeight="11" orient="auto"><circle cx="5" cy="5" r="5" class="arrowMarkerPath" style="stroke-width: 1; stroke-dasharray: 1, 0;"/></marker><marker id="my-svg_flowchart-crossEnd" class="marker cross flowchart" viewBox="0 0 11 11" refX="12" refY="5.2" markerUnits="userSpaceOnUse" markerWidth="11" markerHeight="11" orient="auto"><path d="M 1,1 l 9,9 M 10,1 l -9,9" class="arrowMarkerPath" style="stroke-width: 2; stroke-dasharray: 1, 0;"/></marker><marker id="my-svg_flowchart-crossStart" class="marker cross flowchart" viewBox="0 0 11 11" refX="-1" refY="5.2" markerUnits="userSpaceOnUse" markerWidth="11" markerHeight="11" orient="auto"><path d="M 1,1 l 9,9 M 10,1 l -9,9" class="arrowMarkerPath" style="stroke-width: 2; stroke-dasharray: 1, 0;"/></marker><g class="root"><g class="clusters"/><g class="edgePaths"><path d="M271.742,26.842L241.438,34.285C211.133,41.728,150.523,56.614,120.219,74.724C89.914,92.833,89.914,114.167,89.914,135.5C89.914,156.833,89.914,178.167,89.914,197.75C89.914,217.333,89.914,235.167,89.914,253C89.914,270.833,89.914,288.667,89.914,308.25C89.914,327.833,89.914,349.167,89.914,372.25C89.914,395.333,89.914,420.167,89.914,439.367C89.914,458.567,89.914,472.133,89.914,478.917L89.914,485.7" id="L-A-B-0" class="edge-thickness-normal edge-pattern-solid flowchart-link LS-A LE-B" style="fill:none;" marker-end="url(#my-svg_flowchart-pointEnd)"/><path d="M343.742,26.842L374.047,34.285C404.352,41.728,464.961,56.614,495.266,69.09C525.57,81.567,525.57,91.633,525.57,96.667L525.57,101.7" id="L-A-C-0" class="edge-thickness-normal edge-pattern-solid flowchart-link LS-A LE-C" style="fill:none;" marker-end="url(#my-svg_flowchart-pointEnd)"/><path d="M454.07,151.684L418.863,159.654C383.656,167.623,313.242,183.561,312.374,198.028C311.506,212.495,380.185,225.49,414.524,231.988L448.863,238.486" id="L-C-D-0" class="edge-thickness-normal edge-pattern-solid flowchart-link LS-C LE-D" style="fill:none;" marker-end="url(#my-svg_flowchart-pointEnd)"/><path d="M525.57,271L525.57,276.917C525.57,282.833,525.57,294.667,525.57,305.617C525.57,316.567,525.57,326.633,525.57,331.667L525.57,336.7" id="L-D-E-0" class="edge-thickness-normal edge-pattern-solid flowchart-link LS-D LE-E" style="fill:none;" marker-end="url(#my-svg_flowchart-pointEnd)"/><path d="M550.468,235L558.651,229.083C566.835,223.167,583.203,211.333,585.213,200.078C587.224,188.822,574.878,178.145,568.705,172.806L562.532,167.467" id="L-D-C-0" class="edge-thickness-normal edge-pattern-solid flowchart-link LS-D LE-C" style="fill:none;" marker-end="url(#my-svg_flowchart-pointEnd)"/><path d="M454.07,395.411L430.349,403.676C406.628,411.941,359.185,428.47,335.464,443.519C311.742,458.567,311.742,472.133,311.742,478.917L311.742,485.7" id="L-E-F-0" class="edge-thickness-normal edge-pattern-solid flowchart-link LS-E LE-F" style="fill:none;" marker-end="url(#my-svg_flowchart-pointEnd)"/><path d="M525.57,399L525.57,406.667C525.57,414.333,525.57,429.667,525.57,444.117C525.57,458.567,525.57,472.133,525.57,478.917L525.57,485.7" id="L-E-G-0" class="edge-thickness-normal edge-pattern-solid flowchart-link LS-E LE-G" style="fill:none;" marker-end="url(#my-svg_flowchart-pointEnd)"/><path d="M597.07,395.411L620.792,403.676C644.513,411.941,691.956,428.47,715.677,443.519C739.398,458.567,739.398,472.133,739.398,478.917L739.398,485.7" id="L-E-H-0" class="edge-thickness-normal edge-pattern-solid flowchart-link LS-E LE-H" style="fill:none;" marker-end="url(#my-svg_flowchart-pointEnd)"/><path d="M89.914,569L89.914,573.167C89.914,577.333,89.914,585.667,132.536,595.408C175.157,605.15,260.4,616.3,303.022,621.875L345.643,627.45" id="L-B-K-0" class="edge-thickness-normal edge-pattern-solid flowchart-link LS-B LE-K" style="fill:none;" marker-end="url(#my-svg_flowchart-pointEnd)"/><path d="M311.742,569L311.742,573.167C311.742,577.333,311.742,585.667,321.283,593.67C330.823,601.674,349.904,609.348,359.444,613.185L368.984,617.022" id="L-F-K-0" class="edge-thickness-normal edge-pattern-solid flowchart-link LS-F LE-K" style="fill:none;" marker-end="url(#my-svg_flowchart-pointEnd)"/><path d="M525.57,569L525.57,573.167C525.57,577.333,525.57,585.667,516.03,593.67C506.49,601.674,487.409,609.348,477.869,613.185L468.328,617.022" id="L-G-K-0" class="edge-thickness-normal edge-pattern-solid flowchart-link LS-G LE-K" style="fill:none;" marker-end="url(#my-svg_flowchart-pointEnd)"/><path d="M739.398,569L739.398,573.167C739.398,577.333,739.398,585.667,698.11,595.369C656.821,605.071,574.244,616.141,532.956,621.677L491.667,627.212" id="L-H-K-0" class="edge-thickness-normal edge-pattern-solid flowchart-link LS-H LE-K" style="fill:none;" marker-end="url(#my-svg_flowchart-pointEnd)"/></g><g class="edgeLabels"><g class="edgeLabel" transform="translate(89.9140625, 253)"><g class="label" transform="translate(-48, -10.5)"><foreignObject width="96" height="21"><div xmlns="http://www.w3.org/1999/xhtml" style="display: inline-block; white-space: nowrap;"><span class="edgeLabel">电话指导放归</span></div></foreignObject></g></g><g class="edgeLabel" transform="translate(525.5703125, 71.5)"><g class="label" transform="translate(-56, -10.5)"><foreignObject width="112" height="21"><div xmlns="http://www.w3.org/1999/xhtml" style="display: inline-block; white-space: nowrap;"><span class="edgeLabel">点「上门接收」</span></div></foreignObject></g></g><g class="edgeLabel" transform="translate(242.828125, 199.5)"><g class="label" transform="translate(-64, -10.5)"><foreignObject width="128" height="21"><div xmlns="http://www.w3.org/1999/xhtml" style="display: inline-block; white-space: nowrap;"><span class="edgeLabel">点「移交」选机构</span></div></foreignObject></g></g><g class="edgeLabel" transform="translate(525.5703125, 306.5)"><g class="label" transform="translate(-80, -10.5)"><foreignObject width="160" height="21"><div xmlns="http://www.w3.org/1999/xhtml" style="display: inline-block; white-space: nowrap;"><span class="edgeLabel">接收方点「确认接收」</span></div></foreignObject></g></g><g class="edgeLabel" transform="translate(599.5703125, 199.5)"><g class="label" transform="translate(-64, -10.5)"><foreignObject width="128" height="21"><div xmlns="http://www.w3.org/1999/xhtml" style="display: inline-block; white-space: nowrap;"><span class="edgeLabel">接收方点「退回」</span></div></foreignObject></g></g><g class="edgeLabel" transform="translate(311.7421875, 445)"><g class="label" transform="translate(-77.3671875, -21)"><foreignObject width="154.734375" height="42"><div xmlns="http://www.w3.org/1999/xhtml" style="display: inline-block; white-space: nowrap;"><span class="edgeLabel">点「放归」<br />检疫≥30天+本土+≥2人</span></div></foreignObject></g></g><g class="edgeLabel" transform="translate(525.5703125, 445)"><g class="label" transform="translate(-56, -10.5)"><foreignObject width="112" height="21"><div xmlns="http://www.w3.org/1999/xhtml" style="display: inline-block; white-space: nowrap;"><span class="edgeLabel">点「申请调配」</span></div></foreignObject></g></g><g class="edgeLabel" transform="translate(739.3984375, 445)"><g class="label" transform="translate(-72, -10.5)"><foreignObject width="144" height="21"><div xmlns="http://www.w3.org/1999/xhtml" style="display: inline-block; white-space: nowrap;"><span class="edgeLabel">死亡后点「无害化」</span></div></foreignObject></g></g><g class="edgeLabel"><g class="label" transform="translate(0, 0)"><foreignObject width="0" height="0"><div xmlns="http://www.w3.org/1999/xhtml" style="display: inline-block; white-space: nowrap;"><span class="edgeLabel"></span></div></foreignObject></g></g><g class="edgeLabel"><g class="label" transform="translate(0, 0)"><foreignObject width="0" height="0"><div xmlns="http://www.w3.org/1999/xhtml" style="display: inline-block; white-space: nowrap;"><span class="edgeLabel"></span></div></foreignObject></g></g><g class="edgeLabel"><g class="label" transform="translate(0, 0)"><foreignObject width="0" height="0"><div xmlns="http://www.w3.org/1999/xhtml" style="display: inline-block; white-space: nowrap;"><span class="edgeLabel"></span></div></foreignObject></g></g><g class="edgeLabel"><g class="label" transform="translate(0, 0)"><foreignObject width="0" height="0"><div xmlns="http://www.w3.org/1999/xhtml" style="display: inline-block; white-space: nowrap;"><span class="edgeLabel"></span></div></foreignObject></g></g></g><g class="nodes"><g class="node default default flowchart-label" id="flowchart-A-0" data-node="true" data-id="A" transform="translate(307.7421875, 18)"><rect style="" rx="18" ry="18" x="-36" y="-18" width="72" height="36"/><g class="label" style="" transform="translate(-24, -10.5)"><rect/><foreignObject width="48" height="21"><div xmlns="http://www.w3.org/1999/xhtml" style="display: inline-block; white-space: nowrap;"><span class="nodeLabel">待响应</span></div></foreignObject></g></g><g class="node default default flowchart-label" id="flowchart-B-2" data-node="true" data-id="B" transform="translate(89.9140625, 530)"><rect class="basic label-container" style="" rx="0" ry="0" x="-89.9140625" y="-39" width="179.828125" height="78"/><g class="label" style="" transform="translate(-82.4140625, -31.5)"><rect/><foreignObject width="164.828125" height="63"><div xmlns="http://www.w3.org/1999/xhtml" style="display: inline-block; white-space: nowrap;"><span class="nodeLabel">弹出底部表单<br />填指导意见<br />→ 工单变「无需救护」</span></div></foreignObject></g></g><g class="node default default flowchart-label" id="flowchart-C-4" data-node="true" data-id="C" transform="translate(525.5703125, 135.5)"><rect class="basic label-container" style="" rx="0" ry="0" x="-71.5" y="-28.5" width="143" height="57"/><g class="label" style="" transform="translate(-64, -21)"><rect/><foreignObject width="128" height="42"><div xmlns="http://www.w3.org/1999/xhtml" style="display: inline-block; white-space: nowrap;"><span class="nodeLabel">工单变「处理中」<br />开始24h倒计时</span></div></foreignObject></g></g><g class="node default default flowchart-label" id="flowchart-D-6" data-node="true" data-id="D" transform="translate(525.5703125, 253)"><rect class="basic label-container" style="" rx="0" ry="0" x="-71.5" y="-18" width="143" height="36"/><g class="label" style="" transform="translate(-64, -10.5)"><rect/><foreignObject width="128" height="21"><div xmlns="http://www.w3.org/1999/xhtml" style="display: inline-block; white-space: nowrap;"><span class="nodeLabel">工单变「待接收」</span></div></foreignObject></g></g><g class="node default default flowchart-label" id="flowchart-E-8" data-node="true" data-id="E" transform="translate(525.5703125, 370.5)"><rect class="basic label-container" style="" rx="0" ry="0" x="-71.5" y="-28.5" width="143" height="57"/><g class="label" style="" transform="translate(-64, -21)"><rect/><foreignObject width="128" height="42"><div xmlns="http://www.w3.org/1999/xhtml" style="display: inline-block; white-space: nowrap;"><span class="nodeLabel">工单变「治疗中」<br />自动生成接收证明</span></div></foreignObject></g></g><g class="node default default flowchart-label" id="flowchart-F-12" data-node="true" data-id="F" transform="translate(311.7421875, 530)"><rect class="basic label-container" style="" rx="0" ry="0" x="-81.9140625" y="-39" width="163.828125" height="78"/><g class="label" style="" transform="translate(-74.4140625, -31.5)"><rect/><foreignObject width="148.828125" height="63"><div xmlns="http://www.w3.org/1999/xhtml" style="display: inline-block; white-space: nowrap;"><span class="nodeLabel">弹出底部表单<br />填在场人员+附件<br />→ 工单变「已放归」</span></div></foreignObject></g></g><g class="node default default flowchart-label" id="flowchart-G-14" data-node="true" data-id="G" transform="translate(525.5703125, 530)"><rect class="basic label-container" style="" rx="0" ry="0" x="-81.9140625" y="-39" width="163.828125" height="78"/><g class="label" style="" transform="translate(-74.4140625, -31.5)"><rect/><foreignObject width="148.828125" height="63"><div xmlns="http://www.w3.org/1999/xhtml" style="display: inline-block; white-space: nowrap;"><span class="nodeLabel">弹出底部表单<br />填不适宜放归原因<br />→ 工单变「已调配」</span></div></foreignObject></g></g><g class="node default default flowchart-label" id="flowchart-H-16" data-node="true" data-id="H" transform="translate(739.3984375, 530)"><rect class="basic label-container" style="" rx="0" ry="0" x="-81.9140625" y="-39" width="163.828125" height="78"/><g class="label" style="" transform="translate(-74.4140625, -31.5)"><rect/><foreignObject width="148.828125" height="63"><div xmlns="http://www.w3.org/1999/xhtml" style="display: inline-block; white-space: nowrap;"><span class="nodeLabel">弹出底部表单<br />≥2人签字+附件<br />→ 工单变「已处置」</span></div></foreignObject></g></g><g class="node default default flowchart-label" id="flowchart-K-18" data-node="true" data-id="K" transform="translate(418.65625, 637)"><rect style="" rx="18" ry="18" x="-67.7578125" y="-18" width="135.515625" height="36"/><g class="label" style="" transform="translate(-55.7578125, -10.5)"><rect/><foreignObject width="111.515625" height="21"><div xmlns="http://www.w3.org/1999/xhtml" style="display: inline-block; white-space: nowrap;"><span class="nodeLabel">终态 · 流程结束</span></div></foreignObject></g></g></g></g></g></svg>