<svg xmlns="http://www.w3.org/2000/svg" viewBox="0 0 1280 800" role="img" aria-label="C4D 3D Animation">
  <defs>
    <linearGradient id="sky" x1="0" y1="0" x2="0" y2="1">
      <stop offset="0%" stop-color="#1b1b2f"/>
      <stop offset="100%" stop-color="#16213e"/>
    </linearGradient>
    <linearGradient id="ground" x1="0" y1="0" x2="0" y2="1">
      <stop offset="0%" stop-color="#0f3460"/>
      <stop offset="100%" stop-color="#1a1a2e"/>
    </linearGradient>
  </defs>
  <rect width="1280" height="800" fill="url(#sky)"/>
  <ellipse cx="640" cy="700" rx="700" ry="120" fill="url(#ground)"/>
  <line x1="0" y1="700" x2="1280" y2="700" stroke="#e94560" stroke-width="3" opacity=".5"/>
  <circle cx="320" cy="520" r="64" fill="#e94560"/>
  <path d="M180 700 Q320 420 460 700" stroke="#ffc93c" stroke-width="6" fill="none"/>
  <rect x="520" y="360" width="240" height="340" fill="none" stroke="#4cc9f0" stroke-width="8"/>
  <circle cx="640" cy="360" r="120" fill="none" stroke="#4cc9f0" stroke-width="6"/>
  <line x1="640" y1="240" x2="640" y2="120" stroke="#4cc9f0" stroke-width="4"/>
  <line x1="760" y1="360" x2="880" y2="360" stroke="#4cc9f0" stroke-width="4"/>
  <polygon points="980,520 1040,380 1100,520" fill="#3dd68c"/>
  <circle cx="1020" cy="220" r="36" fill="#ffc93c"/>
  <rect x="56" y="56" width="220" height="56" rx="12" fill="rgba(0,0,0,.35)"/>
  <text x="80" y="92" fill="#ffffff" font-family="Segoe UI, sans-serif" font-size="22" font-weight="600">C4D Motion Lab</text>
  <text x="80" y="748" fill="#a0a0b0" font-family="Segoe UI, sans-serif" font-size="18">14 dynamics exercises</text>
</svg>
